<mxfile host="app.diagrams.net" modified="2024-03-08T06:44:04.188Z" agent="Mozilla/5.0 (X11; Linux x86_64; rv:123.0) Gecko/20100101 Firefox/123.0" etag="c5V9Xoh8tvEfV1BBgOU3" version="24.0.2" type="github">
  <diagram name="Page-1" id="yJYyNSDCp-FqMN-FLc6F">
    <mxGraphModel dx="2537" dy="915" grid="1" gridSize="10" guides="1" tooltips="1" connect="1" arrows="1" fold="1" page="1" pageScale="1" pageWidth="850" pageHeight="1100" math="0" shadow="0">
      <root>
        <mxCell id="0" />
        <mxCell id="1" parent="0" />
        <mxCell id="1-JHIaiA8N6hOSKXOzSS-13" style="edgeStyle=orthogonalEdgeStyle;rounded=0;orthogonalLoop=1;jettySize=auto;html=1;" edge="1" parent="1" source="1-JHIaiA8N6hOSKXOzSS-1" target="1-JHIaiA8N6hOSKXOzSS-14">
          <mxGeometry relative="1" as="geometry">
            <mxPoint x="400" y="540" as="targetPoint" />
          </mxGeometry>
        </mxCell>
        <mxCell id="1-JHIaiA8N6hOSKXOzSS-1" value="&lt;div&gt;FRONTEND&lt;/div&gt;" style="swimlane;whiteSpace=wrap;html=1;" vertex="1" parent="1">
          <mxGeometry x="-200" y="330" width="410" height="420" as="geometry" />
        </mxCell>
        <mxCell id="1-JHIaiA8N6hOSKXOzSS-2" value="Usar" style="shape=table;startSize=30;container=1;collapsible=0;childLayout=tableLayout;fixedRows=1;rowLines=0;fontStyle=0;strokeColor=default;fontSize=16;" vertex="1" parent="1-JHIaiA8N6hOSKXOzSS-1">
          <mxGeometry y="110" width="220" height="110" as="geometry" />
        </mxCell>
        <mxCell id="1-JHIaiA8N6hOSKXOzSS-3" value="" style="shape=tableRow;horizontal=0;startSize=0;swimlaneHead=0;swimlaneBody=0;top=0;left=0;bottom=0;right=0;collapsible=0;dropTarget=0;fillColor=none;points=[[0,0.5],[1,0.5]];portConstraint=eastwest;strokeColor=inherit;fontSize=16;" vertex="1" parent="1-JHIaiA8N6hOSKXOzSS-2">
          <mxGeometry y="30" width="220" height="20" as="geometry" />
        </mxCell>
        <mxCell id="1-JHIaiA8N6hOSKXOzSS-4" value="1" style="shape=partialRectangle;html=1;whiteSpace=wrap;connectable=0;fillColor=none;top=0;left=0;bottom=0;right=0;overflow=hidden;pointerEvents=1;strokeColor=inherit;fontSize=16;" vertex="1" parent="1-JHIaiA8N6hOSKXOzSS-3">
          <mxGeometry width="49" height="20" as="geometry">
            <mxRectangle width="49" height="20" as="alternateBounds" />
          </mxGeometry>
        </mxCell>
        <mxCell id="1-JHIaiA8N6hOSKXOzSS-5" value="HTML" style="shape=partialRectangle;html=1;whiteSpace=wrap;connectable=0;fillColor=none;top=0;left=0;bottom=0;right=0;align=left;spacingLeft=6;overflow=hidden;strokeColor=inherit;fontSize=16;" vertex="1" parent="1-JHIaiA8N6hOSKXOzSS-3">
          <mxGeometry x="49" width="171" height="20" as="geometry">
            <mxRectangle width="171" height="20" as="alternateBounds" />
          </mxGeometry>
        </mxCell>
        <mxCell id="1-JHIaiA8N6hOSKXOzSS-6" value="" style="shape=tableRow;horizontal=0;startSize=0;swimlaneHead=0;swimlaneBody=0;top=0;left=0;bottom=0;right=0;collapsible=0;dropTarget=0;fillColor=none;points=[[0,0.5],[1,0.5]];portConstraint=eastwest;strokeColor=inherit;fontSize=16;" vertex="1" parent="1-JHIaiA8N6hOSKXOzSS-2">
          <mxGeometry y="50" width="220" height="30" as="geometry" />
        </mxCell>
        <mxCell id="1-JHIaiA8N6hOSKXOzSS-7" value="2" style="shape=partialRectangle;html=1;whiteSpace=wrap;connectable=0;fillColor=none;top=0;left=0;bottom=0;right=0;overflow=hidden;strokeColor=inherit;fontSize=16;" vertex="1" parent="1-JHIaiA8N6hOSKXOzSS-6">
          <mxGeometry width="49" height="30" as="geometry">
            <mxRectangle width="49" height="30" as="alternateBounds" />
          </mxGeometry>
        </mxCell>
        <mxCell id="1-JHIaiA8N6hOSKXOzSS-8" value="CSS/BOOTSTRAP" style="shape=partialRectangle;html=1;whiteSpace=wrap;connectable=0;fillColor=none;top=0;left=0;bottom=0;right=0;align=left;spacingLeft=6;overflow=hidden;strokeColor=inherit;fontSize=16;" vertex="1" parent="1-JHIaiA8N6hOSKXOzSS-6">
          <mxGeometry x="49" width="171" height="30" as="geometry">
            <mxRectangle width="171" height="30" as="alternateBounds" />
          </mxGeometry>
        </mxCell>
        <mxCell id="1-JHIaiA8N6hOSKXOzSS-9" value="" style="shape=tableRow;horizontal=0;startSize=0;swimlaneHead=0;swimlaneBody=0;top=0;left=0;bottom=0;right=0;collapsible=0;dropTarget=0;fillColor=none;points=[[0,0.5],[1,0.5]];portConstraint=eastwest;strokeColor=inherit;fontSize=16;" vertex="1" parent="1-JHIaiA8N6hOSKXOzSS-2">
          <mxGeometry y="80" width="220" height="30" as="geometry" />
        </mxCell>
        <mxCell id="1-JHIaiA8N6hOSKXOzSS-10" value="3" style="shape=partialRectangle;html=1;whiteSpace=wrap;connectable=0;fillColor=none;top=0;left=0;bottom=0;right=0;overflow=hidden;strokeColor=inherit;fontSize=16;" vertex="1" parent="1-JHIaiA8N6hOSKXOzSS-9">
          <mxGeometry width="49" height="30" as="geometry">
            <mxRectangle width="49" height="30" as="alternateBounds" />
          </mxGeometry>
        </mxCell>
        <mxCell id="1-JHIaiA8N6hOSKXOzSS-11" value="Js/React.js" style="shape=partialRectangle;html=1;whiteSpace=wrap;connectable=0;fillColor=none;top=0;left=0;bottom=0;right=0;align=left;spacingLeft=6;overflow=hidden;strokeColor=inherit;fontSize=16;" vertex="1" parent="1-JHIaiA8N6hOSKXOzSS-9">
          <mxGeometry x="49" width="171" height="30" as="geometry">
            <mxRectangle width="171" height="30" as="alternateBounds" />
          </mxGeometry>
        </mxCell>
        <mxCell id="1-JHIaiA8N6hOSKXOzSS-16" style="edgeStyle=orthogonalEdgeStyle;rounded=0;orthogonalLoop=1;jettySize=auto;html=1;exitX=0.5;exitY=0;exitDx=0;exitDy=0;" edge="1" parent="1" source="1-JHIaiA8N6hOSKXOzSS-14" target="1-JHIaiA8N6hOSKXOzSS-17">
          <mxGeometry relative="1" as="geometry">
            <mxPoint x="350" y="430" as="targetPoint" />
          </mxGeometry>
        </mxCell>
        <mxCell id="1-JHIaiA8N6hOSKXOzSS-19" style="edgeStyle=orthogonalEdgeStyle;rounded=0;orthogonalLoop=1;jettySize=auto;html=1;" edge="1" parent="1" source="1-JHIaiA8N6hOSKXOzSS-14" target="1-JHIaiA8N6hOSKXOzSS-20">
          <mxGeometry relative="1" as="geometry">
            <mxPoint x="500" y="540" as="targetPoint" />
          </mxGeometry>
        </mxCell>
        <mxCell id="1-JHIaiA8N6hOSKXOzSS-14" value="&lt;b&gt;django 5.0&lt;/b&gt;" style="shape=step;perimeter=stepPerimeter;whiteSpace=wrap;html=1;fixedSize=1;" vertex="1" parent="1">
          <mxGeometry x="290" y="500" width="120" height="80" as="geometry" />
        </mxCell>
        <mxCell id="1-JHIaiA8N6hOSKXOzSS-17" value="&lt;div&gt;&lt;b&gt;&lt;br&gt;&lt;/b&gt;&lt;/div&gt;&lt;div&gt;&lt;b&gt;&lt;br&gt;&lt;/b&gt;&lt;/div&gt;&lt;div&gt;&lt;b&gt;sqlite3&lt;/b&gt;&lt;/div&gt;&lt;div&gt;&lt;b&gt;Database&lt;br&gt;&lt;/b&gt;&lt;/div&gt;&lt;div&gt;&lt;br&gt;&lt;/div&gt;" style="strokeWidth=2;html=1;shape=mxgraph.flowchart.database;whiteSpace=wrap;" vertex="1" parent="1">
          <mxGeometry x="320" y="340" width="60" height="70" as="geometry" />
        </mxCell>
        <mxCell id="1-JHIaiA8N6hOSKXOzSS-18" style="edgeStyle=orthogonalEdgeStyle;rounded=0;orthogonalLoop=1;jettySize=auto;html=1;exitX=0.5;exitY=1;exitDx=0;exitDy=0;" edge="1" parent="1" source="1-JHIaiA8N6hOSKXOzSS-14" target="1-JHIaiA8N6hOSKXOzSS-14">
          <mxGeometry relative="1" as="geometry" />
        </mxCell>
        <mxCell id="1-JHIaiA8N6hOSKXOzSS-56" style="edgeStyle=elbowEdgeStyle;rounded=0;orthogonalLoop=1;jettySize=auto;html=1;startArrow=none;endArrow=none;exitX=1;exitY=0.5;exitDx=0;exitDy=0;" edge="1" parent="1" source="1-JHIaiA8N6hOSKXOzSS-20">
          <mxGeometry relative="1" as="geometry">
            <mxPoint x="830" y="420" as="targetPoint" />
          </mxGeometry>
        </mxCell>
        <mxCell id="1-JHIaiA8N6hOSKXOzSS-20" value="Usage" style="swimlane;startSize=20;horizontal=1;containerType=tree;newEdgeStyle={&quot;edgeStyle&quot;:&quot;elbowEdgeStyle&quot;,&quot;startArrow&quot;:&quot;none&quot;,&quot;endArrow&quot;:&quot;none&quot;};" vertex="1" parent="1">
          <mxGeometry x="460" y="420" width="280" height="220" as="geometry" />
        </mxCell>
        <mxCell id="1-JHIaiA8N6hOSKXOzSS-21" value="" style="edgeStyle=elbowEdgeStyle;elbow=vertical;sourcePerimeterSpacing=0;targetPerimeterSpacing=0;startArrow=none;endArrow=none;rounded=0;curved=0;" edge="1" parent="1-JHIaiA8N6hOSKXOzSS-20" source="1-JHIaiA8N6hOSKXOzSS-23" target="1-JHIaiA8N6hOSKXOzSS-24">
          <mxGeometry relative="1" as="geometry" />
        </mxCell>
        <mxCell id="1-JHIaiA8N6hOSKXOzSS-22" value="" style="edgeStyle=elbowEdgeStyle;elbow=vertical;sourcePerimeterSpacing=0;targetPerimeterSpacing=0;startArrow=none;endArrow=none;rounded=0;curved=0;" edge="1" parent="1-JHIaiA8N6hOSKXOzSS-20" source="1-JHIaiA8N6hOSKXOzSS-23" target="1-JHIaiA8N6hOSKXOzSS-25">
          <mxGeometry relative="1" as="geometry" />
        </mxCell>
        <UserObject label="settings" treeRoot="1" id="1-JHIaiA8N6hOSKXOzSS-23">
          <mxCell style="whiteSpace=wrap;html=1;align=center;treeFolding=1;treeMoving=1;newEdgeStyle={&quot;edgeStyle&quot;:&quot;elbowEdgeStyle&quot;,&quot;startArrow&quot;:&quot;none&quot;,&quot;endArrow&quot;:&quot;none&quot;};" vertex="1" parent="1-JHIaiA8N6hOSKXOzSS-20">
            <mxGeometry x="80" y="40" width="120" height="60" as="geometry" />
          </mxCell>
        </UserObject>
        <mxCell id="1-JHIaiA8N6hOSKXOzSS-24" value="Urls" style="whiteSpace=wrap;html=1;align=center;verticalAlign=middle;treeFolding=1;treeMoving=1;newEdgeStyle={&quot;edgeStyle&quot;:&quot;elbowEdgeStyle&quot;,&quot;startArrow&quot;:&quot;none&quot;,&quot;endArrow&quot;:&quot;none&quot;};" vertex="1" parent="1-JHIaiA8N6hOSKXOzSS-20">
          <mxGeometry x="20" y="140" width="100" height="60" as="geometry" />
        </mxCell>
        <mxCell id="1-JHIaiA8N6hOSKXOzSS-25" value="apps" style="whiteSpace=wrap;html=1;align=center;verticalAlign=middle;treeFolding=1;treeMoving=1;newEdgeStyle={&quot;edgeStyle&quot;:&quot;elbowEdgeStyle&quot;,&quot;startArrow&quot;:&quot;none&quot;,&quot;endArrow&quot;:&quot;none&quot;};" vertex="1" parent="1-JHIaiA8N6hOSKXOzSS-20">
          <mxGeometry x="160" y="140" width="100" height="60" as="geometry" />
        </mxCell>
        <mxCell id="1-JHIaiA8N6hOSKXOzSS-28" value="&lt;div&gt;Db connection,&lt;/div&gt;&lt;div&gt;API&#39;s&lt;br&gt;Mails&lt;br&gt;&lt;/div&gt;" style="rounded=0;whiteSpace=wrap;html=1;" vertex="1" parent="1">
          <mxGeometry x="530" y="320" width="120" height="70" as="geometry" />
        </mxCell>
        <mxCell id="1-JHIaiA8N6hOSKXOzSS-30" style="edgeStyle=orthogonalEdgeStyle;rounded=0;orthogonalLoop=1;jettySize=auto;html=1;exitX=0;exitY=0.5;exitDx=0;exitDy=0;entryX=0.5;entryY=0;entryDx=0;entryDy=0;entryPerimeter=0;" edge="1" parent="1" source="1-JHIaiA8N6hOSKXOzSS-28" target="1-JHIaiA8N6hOSKXOzSS-17">
          <mxGeometry relative="1" as="geometry" />
        </mxCell>
        <mxCell id="1-JHIaiA8N6hOSKXOzSS-32" style="edgeStyle=elbowEdgeStyle;rounded=0;orthogonalLoop=1;jettySize=auto;html=1;startArrow=none;endArrow=none;exitX=0.25;exitY=0;exitDx=0;exitDy=0;entryX=0.25;entryY=1;entryDx=0;entryDy=0;" edge="1" parent="1" source="1-JHIaiA8N6hOSKXOzSS-23" target="1-JHIaiA8N6hOSKXOzSS-28">
          <mxGeometry relative="1" as="geometry" />
        </mxCell>
        <mxCell id="1-JHIaiA8N6hOSKXOzSS-34" style="edgeStyle=elbowEdgeStyle;rounded=0;orthogonalLoop=1;jettySize=auto;html=1;startArrow=none;endArrow=none;exitX=1;exitY=0.5;exitDx=0;exitDy=0;" edge="1" parent="1" source="1-JHIaiA8N6hOSKXOzSS-25">
          <mxGeometry relative="1" as="geometry">
            <mxPoint x="719.4705882352941" y="560" as="targetPoint" />
          </mxGeometry>
        </mxCell>
        <mxCell id="1-JHIaiA8N6hOSKXOzSS-58" style="edgeStyle=orthogonalEdgeStyle;rounded=0;orthogonalLoop=1;jettySize=auto;html=1;exitX=0.25;exitY=1;exitDx=0;exitDy=0;" edge="1" parent="1" source="1-JHIaiA8N6hOSKXOzSS-47">
          <mxGeometry relative="1" as="geometry">
            <mxPoint x="210" y="670" as="targetPoint" />
            <Array as="points">
              <mxPoint x="965" y="640" />
              <mxPoint x="965" y="675" />
            </Array>
          </mxGeometry>
        </mxCell>
        <mxCell id="1-JHIaiA8N6hOSKXOzSS-65" style="edgeStyle=orthogonalEdgeStyle;rounded=0;orthogonalLoop=1;jettySize=auto;html=1;exitX=1;exitY=0.5;exitDx=0;exitDy=0;entryX=0;entryY=0.5;entryDx=0;entryDy=0;" edge="1" parent="1" source="1-JHIaiA8N6hOSKXOzSS-47" target="1-JHIaiA8N6hOSKXOzSS-63">
          <mxGeometry relative="1" as="geometry" />
        </mxCell>
        <mxCell id="1-JHIaiA8N6hOSKXOzSS-47" value="Apps" style="swimlane;startSize=20;horizontal=1;childLayout=flowLayout;flowOrientation=north;resizable=0;interRankCellSpacing=50;containerType=tree;fontSize=12;" vertex="1" parent="1">
          <mxGeometry x="830" y="360" width="270" height="280" as="geometry" />
        </mxCell>
        <mxCell id="1-JHIaiA8N6hOSKXOzSS-48" value="Modelos" style="whiteSpace=wrap;html=1;" vertex="1" parent="1-JHIaiA8N6hOSKXOzSS-47">
          <mxGeometry x="85" y="40" width="100" height="40" as="geometry" />
        </mxCell>
        <mxCell id="1-JHIaiA8N6hOSKXOzSS-49" value="self.urls" style="whiteSpace=wrap;html=1;" vertex="1" parent="1-JHIaiA8N6hOSKXOzSS-47">
          <mxGeometry x="20" y="130" width="100" height="40" as="geometry" />
        </mxCell>
        <mxCell id="1-JHIaiA8N6hOSKXOzSS-50" value="" style="html=1;rounded=1;curved=0;sourcePerimeterSpacing=0;targetPerimeterSpacing=0;startSize=6;endSize=6;noEdgeStyle=1;orthogonal=1;" edge="1" parent="1-JHIaiA8N6hOSKXOzSS-47" source="1-JHIaiA8N6hOSKXOzSS-48" target="1-JHIaiA8N6hOSKXOzSS-49">
          <mxGeometry relative="1" as="geometry">
            <Array as="points">
              <mxPoint x="112.5" y="92" />
              <mxPoint x="70" y="118" />
            </Array>
          </mxGeometry>
        </mxCell>
        <mxCell id="1-JHIaiA8N6hOSKXOzSS-51" value="Views" style="whiteSpace=wrap;html=1;" vertex="1" parent="1-JHIaiA8N6hOSKXOzSS-47">
          <mxGeometry x="150" y="130" width="100" height="40" as="geometry" />
        </mxCell>
        <mxCell id="1-JHIaiA8N6hOSKXOzSS-52" value="" style="html=1;rounded=1;curved=0;sourcePerimeterSpacing=0;targetPerimeterSpacing=0;startSize=6;endSize=6;noEdgeStyle=1;orthogonal=1;" edge="1" parent="1-JHIaiA8N6hOSKXOzSS-47" source="1-JHIaiA8N6hOSKXOzSS-48" target="1-JHIaiA8N6hOSKXOzSS-51">
          <mxGeometry relative="1" as="geometry">
            <Array as="points">
              <mxPoint x="157.5" y="92" />
              <mxPoint x="200" y="118" />
            </Array>
          </mxGeometry>
        </mxCell>
        <mxCell id="1-JHIaiA8N6hOSKXOzSS-53" value="render" style="whiteSpace=wrap;html=1;" vertex="1" parent="1-JHIaiA8N6hOSKXOzSS-47">
          <mxGeometry x="85" y="220" width="100" height="40" as="geometry" />
        </mxCell>
        <mxCell id="1-JHIaiA8N6hOSKXOzSS-54" value="" style="html=1;rounded=1;curved=0;sourcePerimeterSpacing=0;targetPerimeterSpacing=0;startSize=6;endSize=6;noEdgeStyle=1;orthogonal=1;" edge="1" parent="1-JHIaiA8N6hOSKXOzSS-47" source="1-JHIaiA8N6hOSKXOzSS-49" target="1-JHIaiA8N6hOSKXOzSS-53">
          <mxGeometry relative="1" as="geometry">
            <Array as="points">
              <mxPoint x="70" y="182" />
              <mxPoint x="112.5" y="208" />
            </Array>
          </mxGeometry>
        </mxCell>
        <mxCell id="1-JHIaiA8N6hOSKXOzSS-55" value="" style="html=1;rounded=1;curved=0;sourcePerimeterSpacing=0;targetPerimeterSpacing=0;startSize=6;endSize=6;noEdgeStyle=1;orthogonal=1;" edge="1" parent="1-JHIaiA8N6hOSKXOzSS-47" source="1-JHIaiA8N6hOSKXOzSS-51" target="1-JHIaiA8N6hOSKXOzSS-53">
          <mxGeometry relative="1" as="geometry">
            <Array as="points">
              <mxPoint x="200" y="182" />
              <mxPoint x="157.5" y="208" />
            </Array>
          </mxGeometry>
        </mxCell>
        <mxCell id="1-JHIaiA8N6hOSKXOzSS-66" style="edgeStyle=orthogonalEdgeStyle;rounded=0;orthogonalLoop=1;jettySize=auto;html=1;exitX=0.16;exitY=0.55;exitDx=0;exitDy=0;exitPerimeter=0;entryX=0.5;entryY=0;entryDx=0;entryDy=0;" edge="1" parent="1" source="1-JHIaiA8N6hOSKXOzSS-62" target="1-JHIaiA8N6hOSKXOzSS-1">
          <mxGeometry relative="1" as="geometry" />
        </mxCell>
        <mxCell id="1-JHIaiA8N6hOSKXOzSS-62" value="Cloud" style="ellipse;shape=cloud;whiteSpace=wrap;html=1;align=center;" vertex="1" parent="1">
          <mxGeometry x="505" y="110" width="170" height="120" as="geometry" />
        </mxCell>
        <mxCell id="1-JHIaiA8N6hOSKXOzSS-64" style="edgeStyle=orthogonalEdgeStyle;rounded=0;orthogonalLoop=1;jettySize=auto;html=1;exitX=0.5;exitY=0;exitDx=0;exitDy=0;" edge="1" parent="1" source="1-JHIaiA8N6hOSKXOzSS-63">
          <mxGeometry relative="1" as="geometry">
            <mxPoint x="1230" y="170" as="targetPoint" />
            <Array as="points">
              <mxPoint x="650" y="170" />
              <mxPoint x="650" y="170" />
            </Array>
          </mxGeometry>
        </mxCell>
        <mxCell id="1-JHIaiA8N6hOSKXOzSS-63" value="DEPLOY&lt;br&gt;SERVER" style="shape=datastore;whiteSpace=wrap;html=1;" vertex="1" parent="1">
          <mxGeometry x="1200" y="460" width="60" height="80" as="geometry" />
        </mxCell>
        <mxCell id="1-JHIaiA8N6hOSKXOzSS-69" style="edgeStyle=orthogonalEdgeStyle;rounded=0;orthogonalLoop=1;jettySize=auto;html=1;entryX=0.5;entryY=1;entryDx=0;entryDy=0;" edge="1" parent="1" source="1-JHIaiA8N6hOSKXOzSS-67" target="1-JHIaiA8N6hOSKXOzSS-1">
          <mxGeometry relative="1" as="geometry">
            <Array as="points">
              <mxPoint x="5" y="940" />
            </Array>
          </mxGeometry>
        </mxCell>
        <mxCell id="1-JHIaiA8N6hOSKXOzSS-67" value="" style="shape=actor;whiteSpace=wrap;html=1;" vertex="1" parent="1">
          <mxGeometry x="620" y="890" width="40" height="60" as="geometry" />
        </mxCell>
        <mxCell id="1-JHIaiA8N6hOSKXOzSS-70" style="edgeStyle=orthogonalEdgeStyle;rounded=0;orthogonalLoop=1;jettySize=auto;html=1;exitX=0.5;exitY=0;exitDx=0;exitDy=0;entryX=0.55;entryY=0.95;entryDx=0;entryDy=0;entryPerimeter=0;" edge="1" parent="1" source="1-JHIaiA8N6hOSKXOzSS-28" target="1-JHIaiA8N6hOSKXOzSS-62">
          <mxGeometry relative="1" as="geometry" />
        </mxCell>
      </root>
    </mxGraphModel>
  </diagram>
</mxfile>
